Patient4_TMGait_0pt5_02_left_40_EMG.mot
version=1
nRows=40
nColumns=33
inDegrees=no
endheader
time	1LAddLong	2LGlutMax	3LGlutMed	4LIliopsoas	5LSemiMemb	6LBicFemLong	7LRecFem	8LVastMed	9LVastLat	10LGasMed	11LTibAnt	12lTibPost	13LPeroneusLong	14LSol	15LExtDigLong	16LFlexDigLong	17RAddLong	18RGlutMax	19RGlutMed	20RIliopsoas	21RSemiMemb	22RBicFemLong	23RRecFem	24RVastMed	25RVastLat	26RGasMed	27RTibAnt	28RTibPost	29RPeroneusLong	30RSol	31RExtDigLong	32RFlexDigLong
52.485	0.000916	-0.015717	-0.32379	-0.003662	0.014191	-0.12024	0.083466	0.003052	-0.066223	-0.10162	-0.011139	-0.002289	-0.01297	0.003967	-0.022278	-0.006866	0.020294	0.075836	0.047913	-0.1944	0.4985	-0.081177	-0.27802	0.13306	0.02243	-0.002289	0.040131	0.003967	0.006866	-0.022583	-0.004883	-0.005341
52.486	0.007172	-0.004425	-0.3891	0.011597	0.024414	-0.046692	0.091705	0.004425	-0.061646	-0.052948	0.018005	-0.001526	0.014954	0.048523	0.046082	0.005188	0.051422	0.088196	-0.19073	-0.13596	0.41031	-0.24475	-0.25772	0.1622	-0.030365	-0.006714	0.016937	0.009155	0.067139	-0.027466	-0.003204	-0.011444
52.487	-0.000305	0.040131	-0.44311	0.02655	0.02594	0.081329	0.085297	0.002289	-0.056763	-0.013428	0.029449	-0.005035	0.007935	0.052032	0.085144	0.005798	0.060272	0.12528	-0.22888	-0.005798	0.2153	-0.26947	-0.24796	0.11627	0.066681	-0.002594	0.003204	0.007324	0.11581	-0.03418	-0.005493	-0.006561
52.488	0.006409	0.12177	-0.40924	0.013885	0.010986	0.032043	0.071869	0.006256	-0.055084	0.009766	0.058899	-0.003052	0.000153	0.024261	0.24506	0.001526	0.056152	0.11246	0.3569	0.15976	0.10696	-0.28046	-0.27268	0.005341	0.21042	-0.011292	-0.005798	0.010681	0.12589	-0.045471	-0.003967	-0.009613
52.489	0.006866	0.053253	-0.35248	-0.010986	-0.007935	-0.052338	0.069885	0.005646	-0.054321	0.080109	0.084229	-0.005188	0.020294	-0.018158	-0.16586	-0.004425	0.050201	0.045471	1.2552	0.19318	0.083923	-0.12177	-0.35172	-0.10819	0.29938	-0.010376	0.002747	0.006714	0.10193	-0.036469	-0.004883	-0.005341
52.49	0.007324	0.063324	-0.33325	0.003357	0.014343	-0.14008	0.071564	-0.004272	-0.072327	0.20401	0.027161	-0.008392	0.045471	-0.056	-0.1294	0.006714	0.021057	-0.10544	0.87219	0.13321	-0.038757	0.1268	-0.34347	-0.10788	0.33524	-0.006409	0.10941	0.007324	0.11597	-0.04776	-0.004272	-0.005798
52.491	-0.002289	0.061951	-0.36453	0.001831	0.059357	-0.12405	0.058746	0.00824	-0.070953	0.24643	0.027008	-0.011139	0.03418	-0.045319	-0.13672	-0.006256	-0.046539	-0.10361	0.13321	0.12207	-0.25833	0.3009	-0.3862	0.016785	0.24567	-0.001678	0.13901	0.011292	0.22263	-0.045624	-0.004425	-0.013428
52.492	-0.001831	0.10895	-0.41199	0.002594	0.02655	-0.039673	0.049591	0.008698	-0.080719	0.28259	0.011597	-0.010986	-0.011139	-0.083618	-0.088654	-0.008698	-0.073853	-0.014954	0.002289	0.062103	-0.10803	0.34958	-0.24612	0.22278	0.1561	-0.008545	0.13886	0.00824	0.19592	-0.057678	-0.00351	-0.010376
52.493	-0.003204	0.10803	-0.39291	0.013885	-0.028992	-0.022583	0.04715	0.007629	-0.065308	0.33463	-0.034637	-0.013275	-0.023499	-0.045166	-0.038757	-0.006409	-0.039978	0.043793	0.084839	0.057526	0.16754	0.38513	-0.063019	0.048676	0.073547	-0.003815	0.12604	0.010834	-0.12039	-0.071259	-0.006104	-0.006866
52.494	0.006256	0.14191	-0.4248	0.00473	-0.032654	-0.007782	0.051575	-0.002289	-0.058594	0.22247	-0.046539	-0.006104	0.01236	-0.007019	0.03479	0.002136	0.028229	0.05661	0.36148	0.040131	0.24948	0.38528	0.048523	-0.16815	0.002594	-0.004272	0.028687	0.014038	-0.50537	-0.082092	-0.006714	-0.007629
52.495	0.017853	0.15732	-0.40634	0.013123	-0.055542	0.1445	0.070801	0.007629	-0.055237	-0.067139	-0.031586	-0.004883	0.031738	0.014496	0.048523	0.006256	0.050812	0.041199	-0.25253	-0.040283	0.014343	0.38818	0.013123	-0.2684	0.001526	-0.00473	-0.18234	0.01358	-0.78644	-0.071106	-0.003815	-0.006714
52.496	0.016174	0.2182	-0.40863	0.011292	-0.058746	0.22461	0.054932	0.00473	-0.059204	-0.27695	0.001678	-0.000153	0.021057	-0.003204	0.009003	-0.001984	0.007172	0.072021	-0.42206	-0.15106	-0.042419	0.41916	-0.003204	-0.242	0.017395	-0.001831	-0.20325	0.012054	-0.82367	-0.040283	-0.002289	-0.018463
52.497	0.005951	0.15854	-0.36972	0.003052	-0.09552	0.19928	0.055695	0.005341	-0.072174	-0.2533	-0.00061	0.002136	-0.032654	0.029144	-0.026093	-0.016479	0.009155	0.009918	-0.31906	-0.2034	0.16495	0.38177	0.064545	-0.21515	-0.020447	-0.002441	-0.2002	0.007324	0.16296	0.006409	-0.003662	-0.005951
52.498	0.007629	0.15564	-0.35584	0.006256	0.073395	0.12116	0.049133	0.009766	-0.048828	-0.32669	-0.034943	-0.003967	-0.033264	0.027313	-0.063629	-0.001068	0.073547	-0.11429	-0.59692	-0.13428	0.42358	0.24155	0.12695	-0.13382	-0.020752	-0.002289	-0.21042	0.014801	0.45303	-0.022583	-0.002441	-0.014648
52.499	0.007477	0.16281	-0.39475	0.029755	0.17532	0.043182	0.056	0.005188	-0.046997	-0.2298	0.002747	0.002747	-0.10819	0.005341	-0.022583	0.001526	0.074921	-0.14084	-0.66864	-0.052185	0.22903	0.074463	0.019836	-0.048676	0.026093	-0.005646	-0.19333	0.01297	0.33829	-0.059509	-0.003052	-0.012207
52.5	-0.001068	0.1619	-0.40344	0.015869	0.078735	0.002136	0.06485	-0.000458	-0.049286	-0.13184	0.029449	0.00061	-0.10544	0.024872	0.019226	-0.002136	0.00946	-0.082092	0.17059	0.065002	0.059357	0.053711	-0.10605	-0.013275	0.028229	-0.011597	-0.067444	0.015717	0.13031	-0.038147	-0.001526	-0.010376
52.501	0.022736	0.16159	-0.39307	0.011597	0.086517	-0.002136	0.081329	0.002747	-0.062103	-0.025177	0.035095	0.001221	-0.11612	0.021667	0.059357	-0.010529	-0.023193	-0.018005	-0.077972	0.159	0.090637	0.10986	-0.000305	0.03067	-0.040283	-0.007935	0.11719	0.014038	-0.001678	-0.036774	-0.003967	-0.010223
52.502	0.01709	0.2211	-0.42648	0.00824	0.080872	0.0383	0.085144	0.005951	-0.062866	-0.00061	0.024719	0.001831	-0.025024	0.012512	0.041809	-0.005646	-0.071106	0.014648	-0.73486	0.13107	-0.027771	0.093079	0.18723	0.009613	-0.06485	-0.008698	0.10269	0.016022	0.11154	-0.062561	-0.001373	-0.010223
52.503	0.001221	0.18387	-0.3746	0.007477	0.040283	0.05661	0.07309	0.001831	-0.059509	-0.010071	-0.010529	0.002136	0.013123	0.014801	0.000916	-0.013275	-0.056763	-0.045776	-0.53146	-0.1471	0.20676	-0.11551	0.17151	-0.10483	-0.067139	-0.022888	0.11063	0.016022	-0.000763	-0.024567	0.000153	-0.004272
52.504	0.010834	0.20386	-0.36682	-0.012665	0.002289	0.064087	0.040894	-0.003357	-0.062408	-0.10147	-0.03067	0.009308	0.084839	0.017853	0.000458	-0.003815	0.03891	0.055847	0.1741	-0.20462	0.001984	-0.29205	0.022888	-0.18326	-0.030212	-0.01297	0.079041	0.014801	-0.14618	-0.003815	-0.000763	-0.006714
52.505	0.014954	0.22507	-0.37231	-0.006409	0.002747	0.029297	0.023499	0.001984	-0.062714	-0.19821	-0.022888	-0.000153	0.084991	0.050659	0.000763	0.006561	0.070953	0.24048	0.47073	-0.060272	-0.44632	-0.29419	-0.060883	-0.2742	-0.02594	-0.011597	-0.014191	0.011292	0.36133	-0.067596	0.000153	-0.004425
52.506	0.013733	0.19592	-0.35126	-0.001831	0.006714	0.007172	0.0354	0.012054	-0.060425	-0.10895	0.001984	-0.005798	0.074158	0.036163	0.010986	-0.00473	0.049744	0.2446	-0.16785	0.084991	-0.50476	-0.20203	-0.055695	-0.32837	0.002747	-0.007782	-0.049133	0.012512	1.0573	-0.12741	0.003052	-0.000763
52.507	0.018921	0.26779	-0.34241	-0.002747	0.031891	0.002136	0.02533	0	-0.066681	0.077057	0.002441	-0.006104	0.000763	-0.012665	-0.01236	0.002594	0.029602	0.22949	-0.6308	0.033569	-0.28976	-0.055389	-0.014954	-0.32745	-0.00473	-0.006409	-0.053711	0.013885	0.51376	-0.10315	0.001221	-0.003052
52.508	-0.002441	0.24551	-0.34668	0.003815	0.044708	-0.075531	0.037079	0.003357	-0.061188	0.14648	0.009003	-0.021973	-0.041656	-0.036926	-0.009766	-0.004578	-0.016327	0.23544	-0.64957	0.092926	-0.40375	0.036621	-0.25909	-0.1329	0.079651	0.000763	-0.044861	0.014648	0.20523	-0.022888	-0.003204	-0.005951
52.509	-0.003052	0.25024	-0.35736	0.027008	0.030823	-0.093384	0.026245	0.009003	-0.06546	0.14648	0.029755	-0.003204	-0.043945	0.002136	0.029602	0.006409	-0.057373	0.35294	-0.6134	0.26047	-0.084534	-0.080719	-0.35355	0.007019	0.081329	0.003204	0.072784	0.013428	0.000916	0.004272	0.000458	-0.017548
52.51	0.005035	0.26398	-0.35965	0.018463	0.027008	-0.002136	0.039215	0.009155	-0.071564	0.058441	0.024872	-0.016327	-0.03479	0.025635	0.042419	0.000153	-0.088501	0.30182	0.49423	0.15381	0.32089	-0.21545	-0.27039	0.16632	0.062256	0.006561	-0.018616	0.011292	0.058289	-0.083618	-0.002289	-0.011902
52.511	0.005188	0.23254	-0.37064	0.009918	0.018158	0.063477	0.047607	0.006561	-0.057068	-0.003662	0.007782	-0.017548	-0.005341	0.045776	0.028229	0.007172	-0.08194	0.088654	0.91293	0.066681	0.33081	-0.2095	-0.085144	0.2063	0.052032	0.006104	-0.095825	0.00946	-0.098419	-0.064545	-0.001221	-0.00946
52.512	0.002594	0.20981	-0.36713	-0.005951	-0.006409	0.050507	0.018005	-0.001526	-0.047455	0.047455	-0.023956	-0.00946	0.035706	0.006256	0.009613	-0.000916	0.002441	0.092926	0.4747	0.066528	0.32486	-0.10269	-0.013733	0.11063	0.069275	-0.004425	-0.016479	0.011749	-0.046539	0.048828	0.001068	-0.009308
52.513	-0.002289	0.23041	-0.34515	-0.020142	-0.010834	0.033264	0.024261	0.008087	-0.041962	0.13519	-0.045166	0.006714	0.11093	0.030823	-0.044861	0.000153	0.04303	0.12146	0.20294	0.041962	0.52628	-0.10864	-0.095062	0.091705	0.10193	-0.010071	0.078888	0.00885	0.16327	0.04776	-0.000763	-0.020447
52.514	0.008545	0.22553	-0.34668	-0.011902	-0.002289	0.018616	0.039825	0.001678	-0.036926	0.17059	-0.0354	0.005798	0.071869	0.13123	-0.080261	0.012054	0.08728	0.18265	-0.40558	-0.015106	0.26566	-0.21103	-0.04364	0.052643	0.092316	-0.011292	0.12314	0.008698	0.016327	0.009155	-0.001678	-0.016174
52.515	0.009918	0.22919	-0.35934	0.000916	-0.016479	-0.10452	0.001678	0.007324	-0.031128	0.23605	0.045013	-0.005341	-0.051727	0.021973	-0.04364	0.005035	0.15198	0.25085	-0.45548	-0.001373	-0.19226	-0.24338	0.15671	-0.094757	-0.018616	-0.027466	0.15305	0.009918	-0.26703	-0.001068	-0.002136	-0.008392
52.516	0.015411	0.27145	-0.37476	0.003662	0.013428	-0.20813	0.02655	0.002594	-0.008087	0.19486	0.07843	-0.001984	0.23895	-0.001221	0.005188	-0.014191	0.20081	0.35934	0.063477	-0.029755	-0.4187	-0.28381	0.17349	-0.21118	-0.1326	-0.018311	0.20599	0.007324	-0.51941	0.013123	-0.002136	-0.008698
52.517	0.024261	0.21561	-0.35614	0.014801	-0.025787	-0.16495	0.028229	0.003815	-0.020447	0.21027	0.10956	0.009766	0.068207	0.010071	0.056152	-0.030212	0.2002	0.16998	-0.21118	-0.027008	-0.35294	-0.32715	0.22781	-0.24674	-0.17044	-0.0177	0.19943	0.009003	-0.57617	-0.007782	-0.003662	-0.007935
52.518	0.016327	0.18219	-0.32272	-0.000305	-0.06073	-0.0737	0.024567	0.007324	-0.009155	0.02655	0.050201	-0.003204	0.022888	-0.014648	0.12039	-0.02533	0.13107	0.13458	-0.31113	-0.050354	0.071564	-0.15564	0.27145	-0.23407	-0.2002	-0.010071	0.2269	0.011749	-0.17944	-0.072174	-0.005798	-0.004272
52.519	0.015106	0.1947	-0.31494	0.005188	-0.010223	-0.002289	0.00351	0.003662	-0.010376	-0.14587	0.000458	-0.005341	-0.001526	0.029297	0.11551	-0.017395	0.10223	0.14908	-0.39749	-0.018005	0.49088	0.11368	0.27741	-0.28076	-0.19684	-0.006409	0.033569	0.020905	-0.10071	-0.14328	-0.003815	-0.008392
52.52	0.008698	0.24643	-0.30518	-0.004883	0.020447	0.019073	0.015106	0.000458	-0.004272	-0.28702	-0.077057	-0.003662	0.064087	0.03418	0.064392	0.00412	0.067139	0.000916	-0.85953	-0.018311	0.20203	0.001373	0.29495	-0.24185	-0.15976	-0.012817	-0.12528	0.00412	-0.4689	-0.11017	-0.004425	0.000305
52.521	0.014343	0.24704	-0.29495	0.005646	0.027771	0.014648	0.019684	0.005035	-0.010681	-0.28015	-0.19012	-0.002441	0.13672	0.023804	-0.020752	0.003357	0.093079	-0.041351	-0.24323	-0.10864	-0.12192	-0.16724	0.21469	-0.28519	-0.12802	-0.012817	-0.13916	0.005646	0.94421	-0.085144	0.000153	-0.005798
52.522	0.018463	0.22675	-0.24323	-0.013275	0.023041	-0.005646	0.022125	0.002441	-0.006866	-0.10132	-0.17059	-0.003204	0.11948	0.012512	-0.061188	-0.001984	0.085602	-0.089264	0.51407	-0.13138	-0.023956	-0.18326	-0.083618	-0.21484	0.093994	-0.00351	-0.17029	0.002289	1.3303	-0.11932	-0.005035	-0.000458
52.523	0.005646	0.2684	-0.177	-0.002747	0.019531	-0.002136	0.013123	0.002136	0.010986	-0.085297	-0.046539	-0.000916	0.023956	0.018158	-0.090485	-0.00351	0.062561	-0.1506	1.0576	-0.12329	-0.081177	-0.32928	-0.14313	-0.26871	0.22553	-0.001373	-0.54733	0.010223	0.42038	-0.19714	-0.005341	0.002747
52.524	0.003815	0.23468	-0.13718	0.011902	0.014496	-0.003967	0.020752	0.003357	0.00824	-0.17944	0.097504	-0.001068	-0.12131	0.004578	-0.091248	-0.001373	-0.004883	-0.22079	0.84793	-0.06546	-0.4068	-0.28015	-0.037079	-0.26794	0.19821	-0.008545	-0.017853	0.003967	-0.36102	-0.21988	-0.003357	-0.000458
